<?xml version="1.0" encoding="iso-8859-1"?>
<!-- Uploaded to: SVG Repo, www.svgrepo.com, Generator: SVG Repo Mixer Tools -->
<svg fill="#000000" version="1.1" id="Layer_1" xmlns="http://www.w3.org/2000/svg" xmlns:xlink="http://www.w3.org/1999/xlink" 
	 viewBox="0 0 492.308 492.308" xml:space="preserve">
<g>
	<g>
		<path d="M358.188,85.644V46.269h-56.74C296.779,20.01,273.784,0,246.197,0c-27.582,0-50.577,20.01-55.245,46.269h-56.745v39.375
			H43.63v406.663h405.048V85.644H358.188z M153.899,85.644V65.962h55.88v-9.846c0-20.087,16.337-36.423,36.418-36.423
			s36.423,16.337,36.423,36.423v9.846h55.875v19.683v40.74H153.899V85.644z M428.986,472.615H63.322V105.337h70.885v40.74h223.981
			v-40.74h70.798V472.615z"/>
	</g>
</g>
<g>
	<g>
		<polygon points="167.394,190.183 126.274,231.308 109.192,214.221 95.269,228.144 126.274,259.154 181.317,204.106 		"/>
	</g>
</g>
<g>
	<g>
		<rect x="208.443" y="222.73" width="181.602" height="19.692"/>
	</g>
</g>
<g>
	<g>
		<polygon points="167.394,277.663 126.274,318.788 109.192,301.712 95.269,315.635 126.274,346.635 181.317,291.587 		"/>
	</g>
</g>
<g>
	<g>
		<rect x="208.443" y="310.223" width="181.602" height="19.692"/>
	</g>
</g>
<g>
	<g>
		<polygon points="167.394,365.144 126.274,406.269 109.192,389.192 95.269,403.115 126.274,434.115 181.317,379.067 		"/>
	</g>
</g>
<g>
	<g>
		<rect x="208.443" y="397.686" width="181.602" height="19.692"/>
	</g>
</g>
</svg>